<svg xmlns="http://www.w3.org/2000/svg" viewBox="0 0 100 100"><path d="M50 50L90 50M81.57 42.93L90 50L81.57 57.07M50 50L78.28 78.28M77.33 67.33L78.28 78.28L67.33 77.33M50 50L50 90M57.07 81.57L50 90L42.93 81.57M50 50L21.72 78.28M32.67 77.33L21.72 78.28L22.67 67.33M50 50L10 50M18.43 57.07L10 50L18.43 42.93M50 50L21.72 21.72M22.67 32.67L21.72 21.72L32.67 22.67M50 50L50 10M42.93 18.43L50 10L57.07 18.43M50 50L78.28 21.72M67.33 22.67L78.28 21.72L77.33 32.67" fill="none" stroke="#93B7E8" stroke-width="8" stroke-linecap="round" stroke-linejoin="round"/><circle cx="50" cy="50" r="10" fill="#93B7E8"/></svg>
